<svg width="113" height="26" viewBox="0 0 113 26" fill="none" xmlns="http://www.w3.org/2000/svg">
<path id="Vector" d="M27.0884 1.65082L27.1221 1.64329V1.37614H20.2297L13.8297 16.7399L7.42982 1.3763H0.0025104V1.64329L0.0357731 1.65082C1.29379 1.94088 1.93269 2.37342 1.93269 3.93319V22.195C1.93269 23.755 1.29144 24.1875 0.0332627 24.4776L0 24.4851V24.7529H5.0393V24.4861L5.00588 24.4784C3.74786 24.1885 3.10912 23.7558 3.10912 22.196V4.99249L11.3305 24.7529H11.7968L20.2576 4.44152V22.647C20.1498 23.879 19.5169 24.2595 18.3776 24.5221L18.3439 24.5301V24.7949H27.1221V24.5301L27.0884 24.5221C25.9479 24.2595 25.2997 23.879 25.1919 22.647L25.1861 3.93319H25.1919C25.1919 2.37342 25.8307 1.94088 27.0884 1.65082ZM31.0979 13.7483C31.2415 10.4672 32.3952 8.0989 34.331 8.05803C34.9282 8.06813 35.429 8.26829 35.8183 8.65322C36.6454 9.47342 37.0344 11.1872 36.9743 13.7483H31.0979ZM31.0112 14.6729H41.2995V14.6289C41.2704 12.1199 40.5588 10.1683 39.1867 8.82822C38.0007 7.67005 36.2447 7.03287 34.4002 7.03287H34.3589C33.4017 7.03287 32.2276 7.27005 31.3921 7.69954C30.4412 8.14938 29.6024 8.82181 28.9045 9.70451C27.7809 11.1266 27.1003 13.0484 26.9348 15.2082C26.9295 15.2729 26.9247 15.3377 26.9203 15.4024C26.9162 15.4639 26.9128 15.5254 26.9101 15.5869C26.8954 15.8905 26.8904 16.1946 26.8954 16.4986C27.0068 21.3902 29.5937 25.2994 34.1885 25.2994C38.2216 25.2994 40.5704 22.288 41.156 18.246L40.8601 18.1396C39.8313 20.312 37.9835 21.6285 35.8804 21.468C33.0096 21.2486 30.8103 18.2753 31.0099 14.6739M52.9322 21.3019C52.5947 22.1194 51.8906 22.5692 50.947 22.5692C50.0034 22.5692 49.1406 21.9076 48.5279 20.7055C47.8694 19.4149 47.523 17.5907 47.523 15.4298C47.523 10.9319 48.8925 8.02277 51.0124 8.02277C51.9 8.02277 52.5988 8.47261 52.9322 9.25739V21.3019ZM59.7572 24.5084C58.499 24.2043 57.8604 23.7516 57.8604 22.1124V0.300659L50.2169 2.60082V2.88239L50.2638 2.87854C51.3182 2.79152 52.0333 2.9404 52.4487 3.33207C52.7738 3.63896 52.9322 4.10979 52.9322 4.77229V7.76268C52.1786 7.27117 51.2823 7.03191 50.1946 7.03191C47.9888 7.03191 45.9726 7.98063 44.5186 9.7037C43.003 11.4994 42.2017 13.9534 42.2017 16.7995C42.2012 21.8829 44.6512 25.2994 48.2974 25.2994C50.4305 25.2994 52.1466 24.1056 52.9322 22.0922V24.7949H59.7905V24.5151L59.7572 24.5084ZM66.3126 3.26701C66.3126 1.67983 65.1409 0.48271 63.5865 0.48271C62.0396 0.48271 60.8293 1.70579 60.8293 3.26701C60.8293 4.82822 62.0407 6.0513 63.5865 6.0513C65.1409 6.0513 66.3126 4.85419 66.3126 3.26701ZM68.1168 24.5084C66.8586 24.2043 66.22 23.7516 66.22 22.1124H66.2145V7.08367L59.3558 9.09505V9.36829L59.3971 9.37213C60.8811 9.50707 61.2873 10.0292 61.2873 11.8003V24.7949H68.1518V24.5151L68.1168 24.5084ZM85.6916 24.5084C84.4336 24.2043 83.7948 23.7516 83.7948 22.1124V7.08367L77.2645 9.0287V9.30274L77.3031 9.30691C78.5164 9.4372 78.8669 9.98912 78.8669 11.7684V21.2683C78.4624 22.0859 77.7035 22.5713 76.7842 22.6042C75.2932 22.6042 74.4722 21.5755 74.4722 19.7079V7.08415L67.6135 9.09537V9.36829L67.6546 9.37213C69.1387 9.50675 69.5452 10.0287 69.5452 11.8003V19.8404C69.5417 20.4016 69.5895 20.962 69.688 21.5141L69.8115 22.0627C70.3921 24.188 71.9136 25.2994 74.2972 25.2994C76.3162 25.2994 78.0859 24.0228 78.8653 22.0253V24.7995H85.724V24.5196L85.6916 24.5084ZM112.336 24.7949V24.5146L112.302 24.5066C110.937 24.1851 110.406 23.5789 110.406 22.3447V12.122C110.406 8.93447 108.653 7.03207 105.717 7.03207C103.577 7.03207 101.773 8.29521 101.078 10.2628C100.526 8.1779 98.9378 7.03207 96.5895 7.03207C94.5269 7.03207 92.9104 8.14393 92.2169 10.022V7.08495L85.3582 9.01396V9.2888L85.3994 9.29265C86.8656 9.4255 87.2896 9.96268 87.2896 11.6885V24.7949H93.689V24.5151L93.6553 24.5066C92.5663 24.2452 92.2148 23.7684 92.2148 22.5452V10.8277C92.5029 10.1404 93.0836 9.32614 94.2315 9.32614C95.657 9.32614 96.3797 10.3351 96.3797 12.3225V24.7949H102.781V24.5151L102.747 24.5066C101.658 24.2452 101.307 23.7684 101.307 22.5452V12.1207C101.309 11.7309 101.279 11.3416 101.216 10.9572C101.521 10.2103 102.135 9.3263 103.33 9.3263C104.776 9.3263 105.478 10.3061 105.478 12.3225V24.7949H112.336Z" fill="black"/>
</svg>
